<svg xmlns="http://www.w3.org/2000/svg" viewBox="0 0 25.91 30"><defs><style>.cls-1{fill:#fff;}</style></defs><title>campana</title><g id="Capa_2" data-name="Capa 2"><g id="Icons"><path class="cls-1" d="M23.75,24H2.15a2.14,2.14,0,0,1-1.9-1.1,2.17,2.17,0,0,1,.1-2.2L1.45,19a16.11,16.11,0,0,0,2.7-9,8.84,8.84,0,0,1,5.9-8.3,3.32,3.32,0,0,1,5.8,0,8.84,8.84,0,0,1,5.9,8.3,16.11,16.11,0,0,0,2.7,9l1.1,1.7a2.17,2.17,0,0,1,.1,2.2A2,2,0,0,1,23.75,24Z"/><path class="cls-1" d="M8.05,26a5,5,0,0,0,9.8,0Z"/></g></g></svg>