<svg xmlns="http://www.w3.org/2000/svg" viewBox="0 0 377.7 114.3"><defs><style>.cls-1{fill:#da1c24;}</style></defs><title>Recurso 2</title><g id="Capa_2" data-name="Capa 2"><g id="Capa_1-2" data-name="Capa 1"><path class="cls-1" d="M15.38,49.94c0,17.21,0,34.42,0,51.63,0,12.5-.71,13-15.37,12.59V3.05c.85-.53,1.39-1.14,2-1.2C23.34-.08,23.44-.09,27.32,20.5c3,15.91,5.73,31.87,10.26,47.72C40.5,50,44.13,31.8,46.08,13.45,47.16,3.23,51.24-.24,61,1.24c3.29.5,6.72.08,11.2.08.31,4.27.78,7.84.79,11.42q.15,40.23.12,80.46C73.08,107,73,107,57,106V44l-2.46-.13c-2.75,18-5.41,36-8.31,54-.84,5.15-.6,11.16-8.18,12.25-7,1-11.34.43-12.39-8.42C23.6,84.31,20.2,67.08,17.35,49.78Z"/><path class="cls-1" d="M137.64,49.73c0,9.83.39,19.68-.1,29.49-.78,15.7-12.7,25.54-29.94,25.35-14.82-.16-23.41-9.39-23.6-26-.2-17.63-.21-35.26.1-52.88C84.42,7.38,92.73-.1,111.85,0c18.16.1,25.58,7.64,25.78,26.34C137.72,34.14,137.65,41.93,137.64,49.73Zm-35.18,1.21h-.21c0,8.8-.09,17.61,0,26.41.08,5.5,1.78,11.4,8.3,9.88,3.58-.83,8.42-6.36,8.6-10,.87-17.56.77-35.21,0-52.77-.16-3.37-4.5-8.51-7.8-9.34-6.39-1.6-8.76,3.68-8.86,9.39C102.34,33.34,102.46,42.14,102.46,50.94Z"/><path class="cls-1" d="M315.9,2.7c17.38-2.95,17.37-2.95,22.27,11q3.21,9.1,6.53,18.17c.34.93.93,1.78,2.84,5.32,3.25-9.26,5.85-16.58,8.4-23.92C360.55,0,360.54,0,376.3,2.89,372,15.46,368.25,28,363.36,40.17a34.18,34.18,0,0,0-.38,26.4c5.63,15.2,9.87,30.91,14.72,46.48-14.62,3.07-18.07,1-22-12.08-3-9.93-6.09-19.82-9.14-29.72l-2.7-.2C341,79.46,338,87.84,335.13,96.27c-4.74,14.13-5.07,14.33-20.63,8.65,4.3-12.3,7.78-25,13.19-36.88,5.23-11.45,5-21.75,0-33C323.06,24.64,319.82,13.65,315.9,2.7Z"/><path class="cls-1" d="M195.75,97.87c-16.63,2.71-17,2.47-17-12.88q0-35.1.07-70.19c0-4,.33-8,.54-12.79h45c3.1,12.21,2.38,13.24-9.38,13.52h-1c-16.94.28-19.9,4.25-16.91,21.41,1.34,7.7,7.22,3.95,11.16,5.29,3.62,1.22,10.2-1.12,11.1,1.41,2.49,6.94-2.12,14.56-9.93,13.46C199.19,55.68,196.33,60.48,197,69.9c.57,8.43-.07,16.93-.23,25.4A10.57,10.57,0,0,1,195.75,97.87Z"/><path class="cls-1" d="M279.19,87.13v15.74c-13.75-.87-27.46-1.59-41.13-2.81-1.37-.12-3.52-3.28-3.54-5-.21-30.76-.15-61.53-.15-93h17.92c0,7.83,0,15.49,0,23.14,0,16.27.54,32.56-.17,48.8-.39,8.93,2.88,12.34,11.44,12.23C268.3,86.1,273,86.72,279.19,87.13Z"/><path class="cls-1" d="M305.36,104.08c-17.44,1.71-17.41,1.71-17.4-14.41,0-29,0-58,0-87.7h17.39Z"/><path class="cls-1" d="M149.57,1.81h16.67c.23,4,.63,7.92.64,11.84q.1,36,.05,72c0,15-.92,15.68-17.36,13.2Z"/></g></g></svg>